<mxfile host="app.diagrams.net" agent="Mozilla/5.0 (Windows NT 10.0; Win64; x64; rv:142.0) Gecko/20100101 Firefox/142.0" version="28.2.0">
  <diagram name="Page-1" id="RmLmGGy8MKVtNQZPRhIH">
    <mxGraphModel dx="2054" dy="2500" grid="1" gridSize="10" guides="1" tooltips="1" connect="1" arrows="1" fold="1" page="1" pageScale="1" pageWidth="850" pageHeight="1100" math="0" shadow="0">
      <root>
        <mxCell id="0" />
        <mxCell id="1" parent="0" />
        <mxCell id="U0ewaPrgtKHjpjwg8n6J-6" style="edgeStyle=orthogonalEdgeStyle;rounded=0;orthogonalLoop=1;jettySize=auto;html=1;" edge="1" parent="1" source="U0ewaPrgtKHjpjwg8n6J-1" target="U0ewaPrgtKHjpjwg8n6J-5">
          <mxGeometry relative="1" as="geometry" />
        </mxCell>
        <mxCell id="U0ewaPrgtKHjpjwg8n6J-7" style="edgeStyle=orthogonalEdgeStyle;rounded=0;orthogonalLoop=1;jettySize=auto;html=1;" edge="1" parent="1" source="U0ewaPrgtKHjpjwg8n6J-1" target="U0ewaPrgtKHjpjwg8n6J-4">
          <mxGeometry relative="1" as="geometry" />
        </mxCell>
        <mxCell id="U0ewaPrgtKHjpjwg8n6J-8" style="edgeStyle=orthogonalEdgeStyle;rounded=0;orthogonalLoop=1;jettySize=auto;html=1;" edge="1" parent="1" source="U0ewaPrgtKHjpjwg8n6J-1" target="U0ewaPrgtKHjpjwg8n6J-2">
          <mxGeometry relative="1" as="geometry" />
        </mxCell>
        <mxCell id="U0ewaPrgtKHjpjwg8n6J-9" style="edgeStyle=orthogonalEdgeStyle;rounded=0;orthogonalLoop=1;jettySize=auto;html=1;" edge="1" parent="1" source="U0ewaPrgtKHjpjwg8n6J-1" target="U0ewaPrgtKHjpjwg8n6J-3">
          <mxGeometry relative="1" as="geometry" />
        </mxCell>
        <mxCell id="U0ewaPrgtKHjpjwg8n6J-1" value="HHV-6 Roseola" style="rounded=0;whiteSpace=wrap;html=1;" vertex="1" parent="1">
          <mxGeometry x="300" y="300" width="120" height="60" as="geometry" />
        </mxCell>
        <mxCell id="U0ewaPrgtKHjpjwg8n6J-2" value="symptoms" style="rounded=0;whiteSpace=wrap;html=1;" vertex="1" parent="1">
          <mxGeometry x="-130" y="-90" width="120" height="60" as="geometry" />
        </mxCell>
        <mxCell id="U0ewaPrgtKHjpjwg8n6J-3" value="treatment" style="rounded=0;whiteSpace=wrap;html=1;" vertex="1" parent="1">
          <mxGeometry x="450" y="60" width="120" height="60" as="geometry" />
        </mxCell>
        <mxCell id="U0ewaPrgtKHjpjwg8n6J-4" value="complications" style="rounded=0;whiteSpace=wrap;html=1;" vertex="1" parent="1">
          <mxGeometry x="100" y="510" width="120" height="60" as="geometry" />
        </mxCell>
        <mxCell id="U0ewaPrgtKHjpjwg8n6J-5" value="features" style="rounded=0;whiteSpace=wrap;html=1;" vertex="1" parent="1">
          <mxGeometry x="650" y="620" width="120" height="60" as="geometry" />
        </mxCell>
        <mxCell id="U0ewaPrgtKHjpjwg8n6J-11" style="edgeStyle=orthogonalEdgeStyle;rounded=0;orthogonalLoop=1;jettySize=auto;html=1;" edge="1" parent="1" source="U0ewaPrgtKHjpjwg8n6J-10" target="U0ewaPrgtKHjpjwg8n6J-5">
          <mxGeometry relative="1" as="geometry" />
        </mxCell>
        <mxCell id="U0ewaPrgtKHjpjwg8n6J-10" value="dsDNA" style="rounded=0;whiteSpace=wrap;html=1;" vertex="1" parent="1">
          <mxGeometry x="560" y="740" width="120" height="60" as="geometry" />
        </mxCell>
        <mxCell id="U0ewaPrgtKHjpjwg8n6J-13" style="edgeStyle=orthogonalEdgeStyle;rounded=0;orthogonalLoop=1;jettySize=auto;html=1;" edge="1" parent="1" source="U0ewaPrgtKHjpjwg8n6J-12" target="U0ewaPrgtKHjpjwg8n6J-5">
          <mxGeometry relative="1" as="geometry" />
        </mxCell>
        <mxCell id="U0ewaPrgtKHjpjwg8n6J-12" value="infects CD4 T cells" style="rounded=0;whiteSpace=wrap;html=1;" vertex="1" parent="1">
          <mxGeometry x="760" y="740" width="120" height="60" as="geometry" />
        </mxCell>
        <mxCell id="U0ewaPrgtKHjpjwg8n6J-15" style="edgeStyle=orthogonalEdgeStyle;rounded=0;orthogonalLoop=1;jettySize=auto;html=1;" edge="1" parent="1" source="U0ewaPrgtKHjpjwg8n6J-14" target="U0ewaPrgtKHjpjwg8n6J-5">
          <mxGeometry relative="1" as="geometry" />
        </mxCell>
        <mxCell id="U0ewaPrgtKHjpjwg8n6J-14" value="herpes virus" style="rounded=0;whiteSpace=wrap;html=1;" vertex="1" parent="1">
          <mxGeometry x="860" y="620" width="120" height="60" as="geometry" />
        </mxCell>
        <mxCell id="U0ewaPrgtKHjpjwg8n6J-17" value="" style="edgeStyle=orthogonalEdgeStyle;rounded=0;orthogonalLoop=1;jettySize=auto;html=1;" edge="1" parent="1" source="U0ewaPrgtKHjpjwg8n6J-16" target="U0ewaPrgtKHjpjwg8n6J-5">
          <mxGeometry relative="1" as="geometry" />
        </mxCell>
        <mxCell id="U0ewaPrgtKHjpjwg8n6J-16" value="primary in children" style="rounded=0;whiteSpace=wrap;html=1;" vertex="1" parent="1">
          <mxGeometry x="450" y="620" width="120" height="60" as="geometry" />
        </mxCell>
        <mxCell id="U0ewaPrgtKHjpjwg8n6J-19" style="edgeStyle=orthogonalEdgeStyle;rounded=0;orthogonalLoop=1;jettySize=auto;html=1;" edge="1" parent="1" source="U0ewaPrgtKHjpjwg8n6J-18" target="U0ewaPrgtKHjpjwg8n6J-2">
          <mxGeometry relative="1" as="geometry" />
        </mxCell>
        <mxCell id="U0ewaPrgtKHjpjwg8n6J-29" style="edgeStyle=orthogonalEdgeStyle;rounded=0;orthogonalLoop=1;jettySize=auto;html=1;" edge="1" parent="1" source="U0ewaPrgtKHjpjwg8n6J-18" target="U0ewaPrgtKHjpjwg8n6J-20">
          <mxGeometry relative="1" as="geometry" />
        </mxCell>
        <mxCell id="U0ewaPrgtKHjpjwg8n6J-30" value="as fever goes away this appears" style="edgeLabel;html=1;align=center;verticalAlign=middle;resizable=0;points=[];" vertex="1" connectable="0" parent="U0ewaPrgtKHjpjwg8n6J-29">
          <mxGeometry x="-0.1763" y="1" relative="1" as="geometry">
            <mxPoint y="1" as="offset" />
          </mxGeometry>
        </mxCell>
        <mxCell id="U0ewaPrgtKHjpjwg8n6J-18" value="fever" style="rounded=0;whiteSpace=wrap;html=1;" vertex="1" parent="1">
          <mxGeometry x="-250" y="-230" width="120" height="60" as="geometry" />
        </mxCell>
        <mxCell id="U0ewaPrgtKHjpjwg8n6J-21" style="edgeStyle=orthogonalEdgeStyle;rounded=0;orthogonalLoop=1;jettySize=auto;html=1;entryX=0.5;entryY=0;entryDx=0;entryDy=0;" edge="1" parent="1" source="U0ewaPrgtKHjpjwg8n6J-20" target="U0ewaPrgtKHjpjwg8n6J-2">
          <mxGeometry relative="1" as="geometry" />
        </mxCell>
        <mxCell id="U0ewaPrgtKHjpjwg8n6J-20" value="rash" style="rounded=0;whiteSpace=wrap;html=1;" vertex="1" parent="1">
          <mxGeometry x="80" y="-160" width="120" height="60" as="geometry" />
        </mxCell>
        <mxCell id="U0ewaPrgtKHjpjwg8n6J-23" value="" style="edgeStyle=orthogonalEdgeStyle;rounded=0;orthogonalLoop=1;jettySize=auto;html=1;" edge="1" parent="1" source="U0ewaPrgtKHjpjwg8n6J-22" target="U0ewaPrgtKHjpjwg8n6J-2">
          <mxGeometry relative="1" as="geometry" />
        </mxCell>
        <mxCell id="U0ewaPrgtKHjpjwg8n6J-22" value="siezure" style="rounded=0;whiteSpace=wrap;html=1;" vertex="1" parent="1">
          <mxGeometry x="-360" y="-90" width="120" height="60" as="geometry" />
        </mxCell>
        <mxCell id="U0ewaPrgtKHjpjwg8n6J-25" value="" style="edgeStyle=orthogonalEdgeStyle;rounded=0;orthogonalLoop=1;jettySize=auto;html=1;" edge="1" parent="1" source="U0ewaPrgtKHjpjwg8n6J-24" target="U0ewaPrgtKHjpjwg8n6J-18">
          <mxGeometry relative="1" as="geometry" />
        </mxCell>
        <mxCell id="U0ewaPrgtKHjpjwg8n6J-24" value="4 days" style="rounded=0;whiteSpace=wrap;html=1;" vertex="1" parent="1">
          <mxGeometry x="-440" y="-230" width="120" height="60" as="geometry" />
        </mxCell>
        <mxCell id="U0ewaPrgtKHjpjwg8n6J-27" value="" style="edgeStyle=orthogonalEdgeStyle;rounded=0;orthogonalLoop=1;jettySize=auto;html=1;" edge="1" parent="1" source="U0ewaPrgtKHjpjwg8n6J-26" target="U0ewaPrgtKHjpjwg8n6J-18">
          <mxGeometry relative="1" as="geometry" />
        </mxCell>
        <mxCell id="U0ewaPrgtKHjpjwg8n6J-26" value="very high fevers leading to&amp;nbsp;" style="rounded=0;whiteSpace=wrap;html=1;" vertex="1" parent="1">
          <mxGeometry x="-250" y="-370" width="120" height="60" as="geometry" />
        </mxCell>
        <mxCell id="U0ewaPrgtKHjpjwg8n6J-28" style="edgeStyle=orthogonalEdgeStyle;rounded=0;orthogonalLoop=1;jettySize=auto;html=1;entryX=0.567;entryY=0.078;entryDx=0;entryDy=0;entryPerimeter=0;" edge="1" parent="1" source="U0ewaPrgtKHjpjwg8n6J-26" target="U0ewaPrgtKHjpjwg8n6J-22">
          <mxGeometry relative="1" as="geometry">
            <Array as="points">
              <mxPoint x="-292" y="-340" />
            </Array>
          </mxGeometry>
        </mxCell>
        <mxCell id="U0ewaPrgtKHjpjwg8n6J-32" value="" style="edgeStyle=orthogonalEdgeStyle;rounded=0;orthogonalLoop=1;jettySize=auto;html=1;" edge="1" parent="1" source="U0ewaPrgtKHjpjwg8n6J-31" target="U0ewaPrgtKHjpjwg8n6J-3">
          <mxGeometry relative="1" as="geometry" />
        </mxCell>
        <mxCell id="U0ewaPrgtKHjpjwg8n6J-31" value="no FDA treatment" style="rounded=0;whiteSpace=wrap;html=1;" vertex="1" parent="1">
          <mxGeometry x="450" y="-90" width="120" height="60" as="geometry" />
        </mxCell>
        <mxCell id="U0ewaPrgtKHjpjwg8n6J-34" value="" style="edgeStyle=orthogonalEdgeStyle;rounded=0;orthogonalLoop=1;jettySize=auto;html=1;" edge="1" parent="1" source="U0ewaPrgtKHjpjwg8n6J-33" target="U0ewaPrgtKHjpjwg8n6J-3">
          <mxGeometry relative="1" as="geometry" />
        </mxCell>
        <mxCell id="U0ewaPrgtKHjpjwg8n6J-33" value="supportive treatment" style="rounded=0;whiteSpace=wrap;html=1;" vertex="1" parent="1">
          <mxGeometry x="640" y="60" width="120" height="60" as="geometry" />
        </mxCell>
      </root>
    </mxGraphModel>
  </diagram>
</mxfile>
